<?xml version="1.0" standalone="no"?>
<!DOCTYPE svg PUBLIC "-//W3C//DTD SVG 20010904//EN"
 "http://www.w3.org/TR/2001/REC-SVG-20010904/DTD/svg10.dtd">
<svg version="1.0" xmlns="http://www.w3.org/2000/svg"
 width="1352.000000pt" height="1352.000000pt" viewBox="0 0 1352.000000 1352.000000"
 preserveAspectRatio="xMidYMid meet">
<metadata>
Created by potrace 1.14, written by Peter Selinger 2001-2017
</metadata>
<g transform="translate(0.000000,1352.000000) scale(0.100000,-0.100000)"
fill="#000000" stroke="none">
<path d="M6130 9538 c-11 -12 -21 -24 -21 -27 -1 -3 -2 -94 -3 -201 l-1 -195
-247 -1 c-263 -1 -270 -2 -289 -51 -12 -33 7 -80 39 -91 15 -5 130 -8 255 -8
143 1 231 -3 235 -9 4 -5 7 -126 7 -269 l1 -258 -36 -27 c-19 -14 -37 -28 -40
-32 -3 -3 -108 -88 -235 -190 -126 -101 -237 -190 -245 -198 -12 -12 -15 -51
-16 -210 -1 -108 -2 -201 -3 -208 -1 -13 -19 -20 -76 -28 -22 -4 -50 -8 -62
-11 -13 -2 -35 -6 -50 -9 -103 -20 -275 -57 -348 -76 -22 -5 -49 -11 -61 -13
-32 -6 -248 -64 -361 -98 -56 -16 -106 -27 -110 -25 -5 3 -8 74 -8 157 l1 151
-35 27 c-19 15 -66 53 -105 85 -39 32 -78 64 -86 70 -8 7 -104 84 -212 171
l-198 158 -37 -28 c-21 -16 -47 -36 -58 -45 -27 -24 -96 -79 -135 -109 -18
-14 -37 -30 -44 -35 -6 -6 -67 -55 -136 -110 -69 -55 -127 -102 -130 -105 -3
-3 -26 -22 -52 -43 l-48 -38 0 -399 c0 -371 -1 -399 -17 -404 -61 -19 -507
-139 -563 -151 -8 -2 -15 -4 -15 -5 0 -1 -7 -3 -15 -5 -39 -8 -171 -45 -178
-49 -5 -3 -19 -7 -33 -9 -31 -6 -145 -35 -184 -48 -40 -12 -243 -66 -275 -73
-122 -26 -893 -236 -1030 -280 -25 -8 -131 -42 -235 -75 -165 -52 -352 -119
-567 -202 -40 -15 -58 -27 -58 -39 0 -23 20 -38 45 -34 11 2 40 6 65 9 50 7
104 15 129 20 9 1 54 10 101 19 47 8 96 17 110 20 14 2 59 12 100 21 41 9 84
18 95 20 11 2 29 6 40 8 25 7 204 47 227 52 10 2 75 18 145 36 70 17 133 32
138 34 41 9 75 19 107 31 21 8 38 12 38 9 0 -2 11 0 25 5 14 5 36 12 48 14 12
2 63 16 113 30 50 15 102 29 115 31 13 3 35 9 49 14 20 8 746 207 784 216 6 1
18 4 26 8 8 3 38 11 65 17 28 7 88 23 134 36 46 13 93 26 105 28 12 2 53 13
91 24 39 11 108 30 155 42 47 12 103 28 125 35 22 7 73 20 113 30 70 18 72 20
72 49 0 17 1 210 1 428 l0 396 37 30 c20 17 114 91 207 167 94 75 178 142 187
150 15 12 42 -7 240 -166 l223 -180 0 -237 1 -237 29 2 c17 1 39 7 50 12 25
11 182 59 330 100 61 17 124 35 140 40 17 5 73 19 125 31 52 12 102 24 110 27
8 3 24 7 36 8 11 2 38 8 60 14 21 5 55 13 74 16 19 3 51 10 70 15 19 5 52 11
72 14 21 3 57 10 80 15 24 5 63 13 88 16 24 4 47 8 50 10 3 1 32 6 65 10 33 3
64 10 70 15 6 5 10 97 10 249 l0 240 67 53 c38 29 68 56 68 60 0 5 6 8 14 8 8
0 16 4 18 8 2 4 37 35 78 67 86 68 108 86 124 100 31 29 70 55 80 55 6 0 22
-10 36 -23 14 -12 90 -74 170 -137 80 -63 147 -117 150 -120 3 -3 24 -20 47
-38 l43 -33 0 -240 c0 -132 2 -244 4 -248 3 -5 27 -11 53 -14 61 -8 100 -14
138 -21 50 -9 278 -54 305 -60 35 -8 71 -16 95 -20 11 -2 77 -18 146 -35 69
-17 134 -34 145 -36 29 -7 224 -62 264 -75 19 -6 43 -13 52 -15 37 -8 214 -66
230 -75 9 -5 19 -6 21 -2 3 4 4 112 3 241 l-1 234 50 42 c28 24 129 106 225
183 l175 140 40 -31 c22 -17 42 -34 45 -37 4 -4 318 -255 358 -286 2 -1 3
-198 3 -438 0 -330 3 -436 12 -437 100 -8 215 -18 272 -24 22 -2 76 -7 120
-10 44 -4 96 -8 115 -10 19 -2 76 -7 125 -11 118 -9 140 -11 140 -13 0 -1 36
-4 81 -6 44 -3 103 -7 130 -10 27 -3 76 -8 109 -11 107 -9 159 -13 213 -18 29
-3 88 -8 130 -12 42 -3 91 -7 107 -8 17 -2 73 -7 125 -11 52 -5 104 -9 115
-11 11 -1 23 -3 26 -3 6 -1 12 -31 24 -111 3 -18 14 -76 20 -110 11 -52 15
-77 26 -138 6 -34 14 -64 18 -66 5 -3 158 -46 221 -61 8 -3 89 -23 180 -45 91
-23 172 -43 180 -45 8 -2 85 -20 170 -41 141 -33 187 -44 260 -60 14 -3 43
-10 65 -16 22 -5 51 -12 65 -15 14 -2 45 -9 70 -14 25 -6 56 -13 70 -15 14 -3
45 -10 70 -15 25 -6 54 -13 65 -15 11 -3 32 -6 47 -9 15 -2 36 -6 47 -10 11
-3 42 -10 68 -15 26 -4 57 -10 68 -13 18 -4 60 -12 125 -24 14 -2 68 -12 120
-23 52 -10 113 -22 135 -25 22 -4 50 -9 63 -11 12 -2 32 -6 45 -8 12 -1 36 -6
52 -9 17 -4 48 -9 70 -12 22 -4 49 -8 60 -10 11 -1 43 -6 70 -9 28 -4 57 -9
66 -12 14 -4 78 -11 153 -17 10 -1 24 6 30 16 9 15 7 21 -8 33 -19 13 -265 97
-426 144 -41 12 -86 26 -100 31 -47 16 -345 97 -560 153 -74 19 -162 42 -195
51 -33 9 -71 18 -85 21 -14 3 -34 8 -45 11 -11 4 -25 8 -30 9 -6 1 -69 16
-140 34 -72 17 -137 33 -145 35 -8 2 -62 15 -120 29 -116 28 -307 70 -415 92
-178 37 -205 45 -210 68 -4 19 -14 71 -31 166 -4 19 -7 42 -9 50 -1 8 -7 40
-13 70 -6 30 -14 71 -17 90 -9 53 3 50 -200 65 -38 3 -86 8 -105 10 -19 2 -69
7 -110 11 -41 3 -93 7 -115 9 -22 2 -79 7 -126 10 -47 3 -97 8 -110 10 -13 3
-59 7 -104 10 -44 3 -100 8 -125 10 -25 2 -77 6 -116 9 -40 3 -89 8 -110 10
-22 3 -73 8 -114 11 -41 3 -102 8 -135 11 -33 3 -82 8 -110 10 -42 3 -101 8
-200 17 -20 2 -20 10 -21 395 -1 393 -1 393 -23 408 -12 9 -32 25 -44 37 -13
12 -30 27 -39 32 -21 14 -467 373 -498 402 -14 13 -28 23 -31 23 -6 0 -33 -20
-79 -57 -8 -7 -82 -66 -165 -132 -82 -66 -157 -126 -165 -134 -8 -7 -35 -29
-60 -48 -25 -19 -47 -36 -50 -39 -5 -5 -109 -90 -119 -97 -2 -2 -4 -73 -4
-158 0 -85 -4 -155 -8 -155 -5 0 -57 14 -116 31 -119 34 -250 69 -273 74 -8 2
-51 12 -96 24 -45 11 -90 22 -100 24 -10 2 -30 7 -44 10 -51 12 -218 46 -305
62 -49 9 -100 18 -112 21 -22 4 -23 6 -25 216 l-3 212 -260 208 c-143 114
-267 216 -275 226 -13 15 -15 61 -15 278 1 142 4 264 7 269 4 6 94 10 235 9
125 -1 239 3 252 8 53 20 65 70 27 114 l-23 28 -239 0 c-131 1 -244 4 -249 8
-6 4 -10 76 -9 190 1 106 -3 191 -9 203 -25 48 -82 60 -117 23z"/>
<path d="M4361 6086 c-59 -13 -120 -72 -122 -118 -6 -118 24 -151 205 -222 37
-14 52 -27 62 -52 20 -48 18 -63 -15 -93 -54 -50 -180 -34 -224 29 -13 19 -14
19 -40 -8 -25 -26 -25 -28 -9 -48 62 -77 201 -101 298 -52 133 66 99 268 -51
303 -39 10 -124 56 -136 76 -20 30 -15 68 12 94 31 31 114 28 166 -7 l41 -27
21 23 c28 29 20 47 -32 77 -51 28 -117 38 -176 25z"/>
<path d="M5097 6088 c-195 -28 -304 -243 -215 -427 16 -33 46 -75 67 -93 103
-88 271 -93 379 -12 l33 26 -22 24 c-28 30 -30 30 -81 -2 -47 -30 -141 -41
-187 -21 -92 38 -135 106 -135 213 0 59 4 78 27 117 40 68 96 101 172 101 62
0 117 -16 148 -45 17 -16 20 -15 43 8 13 13 24 26 24 29 0 15 -47 45 -110 72
-35 15 -86 19 -143 10z"/>
<path d="M6133 6089 c-108 -22 -165 -121 -123 -216 21 -48 52 -70 150 -108 83
-33 108 -54 116 -99 16 -104 -165 -131 -250 -38 l-18 21 -26 -30 -25 -31 34
-29 c50 -42 90 -59 151 -61 101 -4 177 32 203 96 11 28 12 45 7 120 -3 38 -64
87 -151 122 -44 18 -89 41 -100 51 -31 29 -34 69 -6 100 38 45 138 39 188 -11
13 -14 18 -13 41 5 31 24 32 37 9 56 -57 44 -137 65 -200 52z"/>
<path d="M7147 6090 c-92 -16 -150 -82 -143 -165 6 -76 47 -119 150 -155 77
-27 125 -64 130 -100 15 -105 -151 -137 -245 -47 l-26 25 -22 -26 c-11 -14
-21 -29 -21 -33 0 -15 71 -68 106 -79 50 -17 143 -17 185 0 35 14 98 76 100
98 11 125 -23 179 -138 221 -109 40 -131 57 -138 104 -5 28 -2 39 16 56 44 41
118 39 175 -4 l31 -24 27 26 c21 19 25 28 15 39 -37 45 -132 75 -202 64z"/>
<path d="M3251 6081 c-12 -8 -15 -127 -11 -526 l0 -50 180 -1 c117 0 180 4
181 11 1 5 2 22 3 36 l3 25 -140 0 c-100 -1 -141 2 -144 11 -3 7 -5 121 -6
255 l-2 243 -26 2 c-14 1 -31 -2 -38 -6z"/>
<path d="M3882 6081 c-6 -3 -27 -46 -47 -96 -20 -49 -43 -103 -50 -120 -7 -16
-22 -52 -33 -80 -93 -230 -112 -276 -112 -280 0 -8 84 3 87 11 2 5 14 34 26
64 l22 55 123 0 c68 0 127 -2 130 -5 4 -3 19 -32 33 -65 24 -58 26 -60 62 -61
21 -1 39 1 41 5 2 3 -4 24 -14 46 -10 22 -35 83 -55 135 -21 52 -44 109 -51
125 -7 17 -36 84 -63 150 -39 96 -53 120 -69 121 -11 1 -25 -2 -30 -5z m81
-271 c20 -51 34 -96 31 -99 -9 -10 -184 -7 -184 2 0 5 15 48 34 96 19 47 40
99 46 115 l11 30 13 -25 c7 -14 29 -67 49 -119z"/>
<path d="M5641 6081 c-6 -4 -17 -25 -26 -46 -9 -22 -20 -49 -25 -60 -5 -11
-32 -76 -60 -145 -28 -69 -55 -134 -60 -145 -20 -46 -70 -174 -70 -179 0 -6
79 -1 84 5 2 2 11 27 21 54 10 28 22 54 27 60 5 5 65 10 133 10 l124 1 22 -56
c28 -70 32 -74 75 -77 35 -2 36 -1 31 27 -4 16 -15 48 -26 72 -11 24 -60 142
-109 263 -75 184 -93 220 -110 221 -11 1 -25 -2 -31 -5z m73 -251 c25 -63 46
-117 46 -120 0 -3 -43 -5 -95 -5 -65 0 -95 3 -95 11 0 12 20 63 46 121 8 17
14 33 14 36 0 10 31 79 35 76 2 -2 24 -56 49 -119z"/>
<path d="M6604 5996 c-20 -50 -55 -132 -76 -183 -21 -51 -38 -95 -38 -98 0 -3
-9 -24 -20 -48 -26 -57 -60 -146 -60 -157 0 -8 24 -8 72 -1 4 0 15 18 23 39
41 98 22 88 167 88 119 -1 129 -2 134 -21 4 -11 15 -40 26 -66 17 -41 22 -45
54 -46 37 -1 54 17 37 40 -6 6 -22 44 -37 82 -59 151 -179 441 -188 450 -4 5
-19 10 -32 11 -22 1 -29 -10 -62 -90z m119 -173 c25 -62 45 -114 44 -114 -1
-1 -46 -2 -100 -3 -84 -1 -97 1 -92 14 58 150 91 228 97 222 3 -4 27 -58 51
-119z"/>
<path d="M7649 6086 c-1 -1 -2 -130 -3 -289 -1 -249 1 -288 14 -292 8 -2 74
-3 145 -1 117 3 136 6 187 30 106 50 162 142 161 264 -1 59 -7 84 -29 127 -38
75 -101 129 -179 150 -22 6 -288 16 -296 11z m277 -80 c11 -3 39 -19 63 -36
134 -97 101 -329 -53 -380 -37 -12 -191 -20 -204 -10 -5 3 -8 100 -8 217 l0
212 26 3 c34 4 150 0 176 -6z"/>
<path d="M8266 6080 c-1 -3 -2 -133 -2 -290 l1 -285 193 -1 192 0 0 36 0 36
-132 0 c-194 -2 -178 -11 -175 98 l2 91 133 1 c140 0 150 3 147 47 -2 22 -4
22 -141 22 l-139 1 -1 87 c-1 74 1 87 15 88 9 0 77 1 151 1 l136 1 1 36 1 37
-190 0 c-104 0 -191 -3 -192 -6z"/>
<path d="M8763 6077 c-5 -8 -8 -450 -4 -553 1 -21 4 -21 181 -20 99 0 181 4
181 8 1 5 1 17 1 28 0 11 0 24 -1 28 0 5 -62 8 -137 8 -74 -1 -139 1 -142 4
-4 3 -7 117 -7 255 l0 250 -33 1 c-18 1 -35 -4 -39 -9z"/>
<path d="M1870 4966 c-89 -25 -163 -68 -226 -132 -52 -53 -111 -145 -121 -189
-1 -5 -7 -28 -12 -50 -21 -86 -20 -163 4 -265 4 -14 7 -30 8 -35 2 -6 15 -37
31 -69 59 -120 195 -225 334 -256 113 -26 299 5 384 63 58 39 88 65 88 75 0 6
-23 33 -52 61 l-52 51 -26 -24 c-51 -48 -162 -86 -235 -80 -91 8 -131 20 -190
59 -109 71 -163 230 -130 384 35 165 152 261 320 263 89 1 140 -13 204 -57 28
-19 53 -35 55 -35 3 0 28 24 56 52 l52 53 -39 32 c-46 40 -143 89 -199 101
-62 14 -204 13 -254 -2z"/>
<path d="M6555 4965 c-323 -82 -476 -449 -313 -748 13 -23 28 -47 34 -53 6 -7
21 -25 35 -40 46 -54 154 -127 208 -140 9 -2 34 -8 56 -13 59 -15 202 -7 260
13 135 48 247 155 301 287 32 77 38 111 38 209 0 147 -73 300 -185 388 -30 23
-61 48 -69 55 -8 7 -17 11 -20 10 -3 0 -21 5 -40 13 -84 36 -211 44 -305 19z
m205 -151 c81 -13 170 -84 210 -169 33 -68 34 -76 33 -185 0 -114 -26 -181
-94 -250 -64 -65 -133 -91 -239 -90 -69 0 -74 1 -135 29 -65 29 -128 91 -156
155 -27 62 -28 64 -33 147 -12 188 95 335 265 368 42 8 75 7 149 -5z"/>
<path d="M2801 4951 c-10 -19 -140 -322 -146 -341 -4 -11 -25 -62 -44 -103
-10 -23 -36 -82 -56 -132 -21 -49 -46 -110 -57 -135 -11 -25 -24 -54 -28 -65
-62 -146 -80 -190 -80 -195 0 -5 150 -6 171 -1 5 1 17 27 57 126 9 22 19 45
23 50 5 7 85 11 225 10 l218 0 38 -95 38 -95 90 -1 c102 -1 98 -6 60 81 -10
22 -36 85 -59 140 -23 55 -48 111 -56 125 -7 14 -13 27 -13 30 -1 9 -31 86
-68 170 -9 19 -55 127 -102 240 l-87 205 -58 1 c-43 0 -60 -4 -66 -15z m143
-446 c1 -5 4 -15 8 -20 15 -24 68 -168 64 -172 -5 -5 -308 -5 -311 0 -2 1 17
47 40 102 23 55 59 142 81 192 l38 93 39 -93 c21 -50 40 -96 41 -102z"/>
<path d="M3479 4961 c-3 -15 -5 -967 -2 -977 2 -6 38 -10 88 -10 l85 0 1 81
c0 44 0 183 0 309 -1 126 1 227 4 225 8 -8 55 -80 55 -84 0 -3 41 -72 90 -156
50 -83 90 -153 90 -155 0 -3 11 -21 25 -42 23 -34 28 -36 80 -37 30 -1 58 1
62 4 13 10 63 90 63 101 0 5 4 10 8 10 5 0 16 15 25 33 9 17 21 39 27 47 5 8
46 76 91 150 45 74 83 136 84 138 1 1 2 -135 2 -303 0 -168 4 -309 7 -313 9
-9 165 -12 167 -3 4 16 5 967 2 977 -3 7 -31 11 -76 11 l-73 -1 -139 -239
c-193 -330 -203 -348 -222 -384 -9 -18 -19 -33 -22 -33 -3 0 -17 21 -31 48
-14 26 -53 96 -88 156 -35 60 -77 134 -93 165 -17 31 -60 108 -97 171 l-67
115 -72 1 c-40 1 -74 -2 -74 -5z"/>
<path d="M4775 4962 c-3 -3 -5 -226 -5 -497 l0 -491 73 0 c39 1 77 4 82 8 6 4
9 177 9 490 -1 265 -2 486 -3 489 -1 8 -148 8 -156 1z"/>
<path d="M5196 4960 c-2 -3 -4 -226 -4 -495 l0 -490 82 -1 82 0 2 50 c1 28 2
58 2 66 0 8 0 137 0 285 -1 149 -1 272 0 274 0 3 18 -17 48 -54 4 -5 114 -148
245 -316 l237 -306 58 1 57 1 0 495 0 495 -83 1 c-55 1 -82 -2 -83 -10 0 -6 0
-158 -1 -338 0 -181 -2 -328 -3 -328 -1 0 -42 52 -91 117 -49 64 -96 124 -104
133 -8 9 -51 63 -94 121 -44 57 -82 106 -85 109 -4 3 -39 48 -79 101 l-73 96
-55 0 c-30 -1 -57 -4 -58 -7z"/>
<path d="M7612 4956 c-4 -6 -8 -229 -7 -496 l0 -485 72 -1 c40 0 77 2 82 6 7
3 12 84 13 210 4 241 6 246 89 141 30 -36 56 -68 59 -71 3 -3 56 -68 119 -146
l113 -141 94 1 c52 1 95 4 97 8 1 4 -5 15 -13 25 -8 10 -35 43 -60 73 -25 30
-47 57 -50 60 -3 3 -23 28 -45 55 -22 28 -50 61 -62 75 -11 14 -40 47 -62 75
l-41 49 60 13 c127 25 209 121 218 250 10 140 -71 257 -202 295 -55 16 -463
19 -474 4z m429 -144 c27 -11 78 -65 80 -85 9 -88 -6 -135 -54 -171 -25 -18
-45 -21 -163 -24 l-134 -4 0 144 c0 80 2 147 5 149 9 9 240 1 266 -9z"/>
<path d="M8519 4941 c-4 -200 1 -954 6 -959 8 -8 624 -10 626 -2 5 18 8 108 4
125 -4 19 -12 20 -238 20 l-234 -1 0 143 0 143 184 0 184 0 -3 72 -3 71 -180
1 -180 1 -1 132 -1 132 216 0 c119 -1 224 0 234 0 14 1 17 11 17 74 l0 74
-315 0 -315 0 -1 -26z"/>
<path d="M9608 4936 c-7 -17 -13 -33 -13 -36 -1 -3 -8 -21 -17 -40 -8 -19 -79
-186 -157 -370 -78 -184 -146 -344 -151 -355 -35 -78 -68 -155 -67 -156 1 -1
41 -2 89 -4 l87 -3 35 85 c20 47 36 89 36 94 0 12 -13 11 234 13 189 2 219 0
223 -14 3 -8 20 -51 38 -95 l32 -80 84 -1 c46 0 87 1 91 3 3 2 -11 45 -33 96
-22 50 -74 173 -115 272 -41 99 -81 194 -88 210 -28 62 -46 104 -110 255 l-65
155 -60 1 c-58 0 -61 -1 -73 -30z m161 -451 c38 -93 68 -171 67 -173 -5 -4
-307 -4 -311 0 -4 4 134 343 149 367 8 12 11 11 18 -5 4 -10 39 -95 77 -189z"/>
<path d="M10288 4947 c-2 -7 -4 -230 -4 -497 l1 -485 290 0 289 0 2 73 c2 68
1 72 -19 73 -12 0 -106 1 -209 2 l-188 1 0 421 0 421 -79 1 c-53 1 -81 -2 -83
-10z"/>
</g>
</svg>
